<svg xmlns="http://www.w3.org/2000/svg" role="img" viewBox="0 0 24 24" aria-hidden="true">
  <title>VK</title>
  <path fill="#FFFFFF" d="M15.117 2H8.883C3.95 2 2 3.95 2 8.883v6.234C2 20.05 3.95 22 8.883 22h6.234C20.05 22 22 20.05 22 15.117V8.883C22 3.95 20.05 2 15.117 2Zm1.17 14.275h-1.36c-.52 0-.68-.41-1.61-1.36-1.02-.99-1.47-1.12-1.72-1.12-.28 0-.36.08-.36.47v1.24c0 .33-.11.53-1 .53-1.45 0-3.07-.88-4.2-2.52-1.2-1.73-1.67-3.53-1.67-3.87 0-.2.08-.39.47-.39h1.37c.35 0 .48.15.61.53.68 1.96 1.81 3.68 2.28 3.68.17 0 .25-.08.25-.52v-2.66c-.05-.93-.55-1.01-.55-1.35 0-.16.13-.32.35-.32h2.16c.29 0 .4.16.4.51v3.27c0 .29.13.4.21.4.17 0 .32-.11.64-.43.99-1.11 1.69-2.82 1.69-2.82.09-.2.25-.39.6-.39h1.37c.41 0 .51.21.41.51-.17.8-1.85 3.18-1.85 3.18-.15.24-.2.35 0 .61.15.2.63.61.95.99.59.67 1.04 1.23 1.16 1.62.13.39-.07.59-.45.59h-1.37Z"/>
</svg>
