<svg width="238" height="55" viewBox="0 0 238 55" fill="none" xmlns="http://www.w3.org/2000/svg">
<mask id="mask0_501_173" style="mask-type:luminance" maskUnits="userSpaceOnUse" x="0" y="5" width="238" height="42">
<path d="M237.01 5H0V46.5204H237.01V5Z" fill="white"/>
</mask>
<g mask="url(#mask0_501_173)">
<path d="M139.624 17.0217C135.008 17.0217 132.588 18.7003 132.095 22.2056H134.958C135.353 20.2061 136.736 19.4161 139.574 19.4161C142.413 19.4161 144.018 20.3295 144.388 22.4524H137.081V24.7728H144.388C144.043 26.9451 142.561 27.8831 139.574 27.8831C136.587 27.8831 135.304 27.0438 134.933 25.0197H132.07C132.539 28.599 134.958 30.2776 139.574 30.2776C144.808 30.2776 147.276 28.1547 147.276 23.662C147.301 19.1446 144.882 17.0217 139.624 17.0217Z" fill="#0079C2"/>
<path d="M151.646 24.6987H160.089V30.0554H162.804V17.1945H160.089V22.2796H151.646V17.1945H148.93V30.0554H151.646V24.6987Z" fill="#0079C2"/>
<path d="M177.393 27.6363H167.692V24.6494H176.258V22.2302H167.692V19.6383H177.393V17.2191H164.976V30.0801H177.393V27.6363Z" fill="#0079C2"/>
<path d="M181.713 25.4887H188.428C191.538 25.4887 193.044 24.1557 193.044 21.3416C193.044 18.5275 191.538 17.1945 188.428 17.1945H179.023V30.0554H181.738V25.4887H181.713ZM187.786 19.6136C189.489 19.6136 190.23 20.1073 190.23 21.3169C190.23 22.5265 189.489 23.0695 187.786 23.0695H181.713V19.6136H187.786Z" fill="#0079C2"/>
<path d="M197.019 19.6136H205.659V17.1945H194.303V30.0554H197.019V19.6136Z" fill="#0079C2"/>
<path d="M221.013 17.2191H218.298V30.0554H221.013V17.2191Z" fill="#0079C2"/>
<path d="M218.298 17.2191H215.385L209.09 30.0554H212.003L218.298 17.2191Z" fill="#0079C2"/>
<path d="M209.09 17.1945H206.375V30.0554H209.09V17.1945Z" fill="#0079C2"/>
<path d="M227.605 17.1945C224.494 17.1945 222.988 18.5521 222.988 21.2675C222.988 23.6126 224.124 24.9456 226.395 25.2912L222.248 30.0554H225.654L229.728 25.3652H234.319V30.0554H237.035V17.1945H227.605ZM228.271 23.0202C226.568 23.0202 225.827 22.5018 225.827 21.2922C225.827 20.1073 226.543 19.5889 228.271 19.5889H234.319V23.0202H228.271Z" fill="#0079C2"/>
<path d="M134.193 39.5098V39.3617C135.18 38.8927 135.723 37.9053 135.723 36.5723C135.723 34.4988 134.415 33.3139 131.922 33.3139H121.973V46.1748H132.045C134.711 46.1748 136.118 44.8665 136.118 42.4474C136.094 40.8428 135.402 39.8307 134.193 39.5098ZM131.008 35.733C132.391 35.733 132.983 36.1033 132.983 37.0166C132.983 37.93 132.391 38.3249 131.008 38.3249H124.664V35.733H131.008ZM131.107 43.7557H124.664V40.6207H131.107C132.662 40.6207 133.329 41.0897 133.329 42.1758C133.329 43.262 132.662 43.7557 131.107 43.7557Z" fill="#0079C2"/>
<path d="M141.327 46.1748H144.709L155.373 33.3139H151.991L141.327 46.1748Z" fill="#0079C2"/>
<path d="M158.064 33.3139H155.349V46.1748H158.064V33.3139Z" fill="#0079C2"/>
<path d="M171.839 33.1411C167.001 33.1411 164.532 35.0171 164.236 38.8927H162.952V33.3139H160.237V46.1748H162.952V41.3118H164.31C164.853 44.7431 167.297 46.3476 171.814 46.3476C176.998 46.3476 179.516 44.2247 179.516 39.732C179.492 35.264 177.048 33.1411 171.839 33.1411ZM171.765 43.9532C168.358 43.9532 167.025 42.7683 167.025 39.732C167.025 36.7204 168.334 35.5602 171.765 35.5602C175.196 35.5602 176.677 36.8192 176.677 39.732C176.677 42.6448 175.246 43.9532 171.765 43.9532Z" fill="#0079C2"/>
<path d="M194.92 33.3139H192.205V43.7557H183.219L192.205 33.3139H188.798L177.862 46.1748H196.155V43.7557H194.92V33.3139Z" fill="#0079C2"/>
<path d="M201.956 33.3139C198.846 33.3139 197.34 34.6715 197.34 37.3869C197.34 39.732 198.475 41.065 200.746 41.4106L196.599 46.1748H200.006L204.079 41.4846H208.671V46.1748H211.386V33.3139H201.956ZM202.598 39.1642C200.894 39.1642 200.154 38.6459 200.154 37.4363C200.154 36.2514 200.87 35.733 202.598 35.733H208.646V39.1396L202.598 39.1642Z" fill="#0079C2"/>
<path d="M212.447 32.9683V36.1033L217.459 39.7073L212.447 43.3854V46.5204L219.582 41.2625L226.889 46.5204V43.3854L221.877 39.7814L226.889 36.0786V32.9929L219.754 38.2509L212.447 32.9683Z" fill="#0079C2"/>
<path fill-rule="evenodd" clip-rule="evenodd" d="M71.0709 30.1048C71.4165 30.1048 71.6881 29.8579 71.6881 29.537V19.7864C71.6387 19.5149 71.3918 19.2927 71.0709 19.2927C70.75 19.2927 70.5031 19.5149 70.4538 19.7864V29.537C70.4538 29.8579 70.7253 30.1048 71.0709 30.1048ZM72.2065 17.4907C74.1567 17.4907 74.2801 19.0458 74.2801 20.0579V29.3149C74.2801 30.3269 74.1567 31.8821 72.2065 31.8821H69.9107C67.9605 31.8821 67.8371 30.3269 67.8371 29.3149V20.0579C67.8371 19.0458 67.9605 17.4907 69.9107 17.4907H72.2065ZM28.9073 17.4907H34.2148V19.268H31.6968V31.8821H28.9073V17.4907ZM36.0662 17.4907H40.4356L41.8921 31.8821H39.1766L38.9298 28.0559H37.6214L37.3746 31.8821H34.6591L36.0662 17.4907ZM38.7817 26.4761L38.3126 19.268H38.1645L37.6955 26.4761H38.7817ZM45.8418 26.8463V29.5617C45.8418 29.932 46.1134 30.0307 46.2615 30.0307C46.5084 30.0307 46.6812 29.8086 46.6812 29.5617V26.2045C46.6812 25.7602 46.6071 25.2665 45.5703 25.2665H44.4594V23.6866H45.6197C46.4096 23.6866 46.7059 23.4892 46.7059 22.6252V19.7617C46.7059 19.5149 46.5331 19.2927 46.2862 19.2927C46.1134 19.2927 45.8665 19.3914 45.8665 19.7617V22.1068H43.077V20.0579C43.077 19.0458 43.2005 17.4907 45.1506 17.4907H47.4464C49.3966 17.4907 49.5201 19.0458 49.5201 20.0579V22.3783C49.5201 23.9335 48.4586 24.3531 47.6192 24.3285V24.4766C49.4707 24.4272 49.5201 25.9083 49.5201 26.4267V29.3149C49.5201 30.3269 49.3966 31.8821 47.4464 31.8821H45.1506C43.2251 31.8821 43.077 30.3269 43.077 29.3149V26.8463H45.8418ZM51.3221 17.4907H57.7405V31.8821H55.1485V19.268H53.8895V31.8821H51.2975V17.4907H51.3221ZM59.7647 17.4907H64.1342C66.0844 17.4907 66.3806 19.0458 66.3806 20.0579V24.4025C66.3806 25.4146 66.0844 26.9698 64.1342 26.9698H62.5543V31.8574H59.7647V17.4907ZM63.2702 25.3899C63.5664 25.3899 63.7886 25.1184 63.7886 24.6741V19.9839C63.7886 19.5395 63.5664 19.268 63.2702 19.268H62.5296V25.3899H63.2702ZM83.1177 17.4907H86.7218V31.8821H83.957V22.8473H83.8582L82.4265 31.8821H80.2047L78.7729 22.8473H78.6742V31.8821H75.8847V17.4907H79.5135L81.3156 27.6116L83.1177 17.4907ZM22.9826 18.9471C23.0073 17.4907 22.8592 15.0222 22.168 12.4302C21.4521 9.83829 20.0697 7.36977 19.8475 7.07355C19.65 7.39446 18.5392 9.39395 17.5764 12.5043C17.3295 13.4423 16.8605 15.4665 16.7865 17.466C16.6877 19.8605 17.0086 22.2549 17.1568 22.9214C17.1568 22.1315 17.1814 19.4655 17.6752 17.2685C18.1689 15.0715 19.107 12.5536 19.8722 11.27C20.6869 12.6277 21.7483 15.5405 22.1186 17.2932C22.4889 19.0458 22.6864 21.2675 22.5877 22.8473C22.7852 21.934 22.958 20.3788 22.9826 18.9471ZM19.8475 30.1048C20.2919 29.2902 21.0571 27.4635 21.0078 25.1678C20.909 22.8227 20.1191 21.0947 19.8722 20.6997C19.6007 21.1194 18.6626 23.0942 18.6873 25.3899C18.7613 27.7597 19.4279 29.2902 19.8475 30.1048ZM23.2542 12.4549C24.1182 16.2811 24.1182 18.6262 23.7232 21.3169C23.032 26.1552 20.835 29.8332 19.8722 31.0675C19.2304 30.2282 18.2182 28.5002 17.5517 26.9204C17.5517 26.9204 16.2927 23.8841 15.9471 20.8972C15.6015 17.935 15.7497 14.9234 16.7371 11.5169C17.6258 8.45592 19.3785 5.71587 19.8722 5C20.1684 5.4937 22.3655 8.60403 23.2542 12.4549ZM25.0563 31.8574V41.7068C22.4149 44.4962 18.6626 46.2489 14.4907 46.2489C6.49241 46.2489 0 39.806 0 31.8821C0 23.9582 6.49241 17.5154 14.4907 17.5154V28.3028C12.417 28.3028 10.3187 29.0927 8.73883 30.6725C8.36854 31.0428 8.02294 31.4378 7.75139 31.8821C5.6284 35.0171 5.94932 39.3123 8.73883 42.0771C10.3187 43.6322 12.417 44.4468 14.4907 44.4468C16.5643 44.4468 18.6379 43.6569 20.2178 42.1018C20.2178 42.1018 20.2425 42.1018 20.2425 42.0771L20.2672 42.0524C21.8471 40.4725 21.8471 37.93 20.2672 36.3501C18.6873 34.7703 16.0953 34.7703 14.5154 36.3501C14.5154 36.3501 14.4907 36.3501 14.4907 36.3748V31.8574H25.0563ZM84.1792 42.2005C84.1792 40.9416 83.6361 40.6206 82.2043 40.6206H81.9574V38.2015H80.501V44.4468H81.9574C83.5373 44.4468 84.1792 44.2 84.1792 42.8423V42.2005ZM71.9349 38.2015H68.232V39.3864H69.417V44.4715H70.7994V39.3864H71.9102L71.9349 38.2015ZM60.6534 40.2751C60.6534 38.9914 60.0363 38.6705 58.5551 38.6705V38.2015H57.1233V38.6705C55.6422 38.6705 55.025 38.9914 55.025 40.2751V42.2252C55.025 43.4841 55.6669 43.8297 57.1233 43.8297V44.4468H58.5551V43.8297C60.0116 43.8297 60.6534 43.4841 60.6534 42.2252V40.2751ZM47.3724 38.2015H43.8423V44.4715H47.3724V43.2866H45.3728V41.8055H47.1749V40.6206H45.3728V39.3864H47.3724V38.2015ZM35.2022 38.2015H33.7457V40.6206H32.9805V38.2015H31.524V44.4468H32.9805V41.7068H33.7457V44.4468H35.2022V38.2015ZM86.7712 46.2489H28.9073V36.6463H86.7465L86.7712 46.2489ZM56.4568 40.2257C56.4568 39.8554 56.5803 39.7567 56.9012 39.7567H57.1233V42.6695H56.9012C56.5803 42.6695 56.4568 42.5955 56.4568 42.2252V40.2257ZM82.2784 41.7315C82.5993 41.7315 82.698 41.8055 82.698 42.1758V42.9411C82.698 43.2866 82.5993 43.3854 82.2784 43.3854H81.9574V41.7562H82.2784V41.7315ZM58.7773 39.7814C59.0982 39.7814 59.2216 39.8554 59.2216 40.2257V42.2499C59.2216 42.6202 59.0982 42.7189 58.7773 42.7189H58.5551V39.806H58.7773V39.7814Z" fill="#0079C2"/>
<path fill-rule="evenodd" clip-rule="evenodd" d="M117.579 17.2438H120.937L97.09 46.1254H93.7327L117.579 17.2438Z" fill="#0079C2"/>
</g>
</svg>
