<?xml version="1.0" encoding="UTF-8"?>
<svg preserveAspectRatio="xMidYMid meet" viewBox="0 -37.5 116 116" version="1.1" xmlns="http://www.w3.org/2000/svg" xmlns:xlink="http://www.w3.org/1999/xlink">
    <!-- Generator: Sketch 49 (51002) - http://www.bohemiancoding.com/sketch -->
    <title>opti-logo2</title>
    <desc>Created with Sketch.</desc>
    <defs/>
    <g id="Page-1" stroke="none" stroke-width="1" fill="none" fill-rule="evenodd">
        <g id="Artboard">
            <g id="opti-logo2">
                <path d="M65.7761,7.594 C58.5951,7.594 52.7481,13.442 52.7481,20.622 C52.7481,27.802 58.5951,33.65 65.7761,33.65 C72.9561,33.65 78.8041,27.802 78.8041,20.622 C78.8041,13.442 72.9761,7.594 65.7761,7.594 M65.7761,9.941 C71.6431,9.941 76.4571,14.735 76.4571,20.622 C76.4571,26.51 71.6631,31.303 65.7761,31.303 C59.8881,31.303 55.1151,26.49 55.1151,20.622 C55.1151,14.754 59.8881,9.941 65.7761,9.941" id="Fill-1" fill="#3A5F93"/>
                <path d="M82.1853,40.1736 C81.5283,40.1736 81.0113,39.6566 81.0113,39.0006 L81.0113,23.2276 L83.3583,23.2276 L83.3583,39.0006 C83.3783,39.6566 82.8413,40.1736 82.1853,40.1736" id="Fill-3" fill="#3A5F93"/>
                <path d="M113.989,32.0388 C113.333,32.0388 112.816,31.5218 112.816,30.8648 L112.816,17.5188 C112.816,16.8628 113.333,16.3458 113.989,16.3458 C114.645,16.3458 115.162,16.8628 115.162,17.5188 L115.162,30.8648 C115.162,31.4818 114.645,32.0388 113.989,32.0388" id="Fill-5" fill="#3A5F93"/>
                <path d="M113.989,10.9954 C114.637,10.9954 115.162,11.5204 115.162,12.1684 C115.162,12.8164 114.637,13.3424 113.989,13.3424 C113.341,13.3424 112.816,12.8164 112.816,12.1684 C112.816,11.5204 113.341,10.9954 113.989,10.9954" id="Fill-7" fill="#3A5F93"/>
                <path d="M89.405,29.7117 C86.242,29.7117 83.637,27.2457 83.398,24.1427 L83.398,23.2077 C83.637,20.0847 86.242,17.6187 89.445,17.6187 C92.786,17.6187 95.491,20.3437 95.491,23.6657 C95.451,27.0067 92.747,29.7117 89.405,29.7117 M89.405,15.2717 C84.731,15.2717 80.991,19.0107 80.991,23.6847 C80.991,23.9037 80.991,24.0627 81.031,24.2417 L81.031,39.0007 C81.031,39.6567 81.549,40.1737 82.205,40.1737 C82.862,40.1737 83.379,39.6567 83.379,39.0007 L83.379,29.5127 C84.89,31.0847 87.038,32.0587 89.385,32.0587 C94.059,32.0587 97.799,28.3187 97.799,23.6457 C97.799,19.0507 94.02,15.2717 89.405,15.2717" id="Fill-9" fill="#3A5F93"/>
                <path d="M104.1833,32.0784 C103.5273,32.0784 103.0103,31.5614 103.0103,30.9054 L103.0103,8.6484 C103.0103,7.9924 103.5273,7.4744 104.1833,7.4744 C104.8393,7.4744 105.3563,7.9924 105.3563,8.6484 L105.3563,30.9254 C105.3763,31.5414 104.8593,32.0784 104.1833,32.0784" id="Fill-11" fill="#3A5F93"/>
                <path d="M97.9182,16.6638 C97.9182,16.0078 98.4352,15.4908 99.0912,15.4908 L109.2752,15.4908 C109.9312,15.4908 110.4482,16.0078 110.4482,16.6638 C110.4482,17.3198 109.9312,17.8368 109.2752,17.8368 L99.0912,17.8368 C98.4552,17.8368 97.9182,17.2998 97.9182,16.6638" id="Fill-13" fill="#3A5F93"/>
                <path d="M38.467,6.3211 C37.294,6.3211 36.199,6.6591 35.245,7.2161 C35.702,8.5491 35.921,9.9411 35.921,11.4331 C35.921,13.6011 35.404,15.6501 34.469,17.4401 C35.543,18.3351 36.936,18.8721 38.467,18.8721 C41.928,18.8721 44.713,16.0471 44.713,12.6261 C44.752,9.1451 41.948,6.3211 38.467,6.3211" id="Fill-15" fill="#75A4E5"/>
                <path d="M22.7542,-0.0002 C16.4292,-0.0002 11.2772,5.1318 11.2772,11.4768 C11.2772,14.0218 12.1132,16.3298 13.5052,18.2188 L9.0302,23.2708 C10.6012,23.8878 11.8742,25.0418 12.6902,26.4938 L17.1452,21.4808 C18.8162,22.4158 20.7252,22.9328 22.7342,22.9328 C29.0592,22.9328 34.2112,17.8018 34.2112,11.4568 C34.1912,5.1708 29.0792,-0.0002 22.7542,-0.0002" id="Fill-17" fill="#3A5F93"/>
                <path d="M6.3049,23.9636 C9.7869,23.9636 12.6099,26.7866 12.6099,30.2686 C12.6099,33.7506 9.7869,36.5736 6.3049,36.5736 C2.8229,36.5736 -0.0001,33.7506 -0.0001,30.2686 C-0.0001,26.7866 2.8229,23.9636 6.3049,23.9636" id="Fill-19" fill="#75A4E5"/>
            </g>
        </g>
    </g>
</svg>